<mxfile host="app.diagrams.net" agent="Mozilla/5.0 (X11; Linux x86_64) AppleWebKit/537.36 (KHTML, like Gecko) Chrome/131.0.0.0 Safari/537.36" version="28.0.6">
  <diagram name="Page-1" id="UyHZOKQVb40gdVOyIvR0">
    <mxGraphModel dx="1426" dy="759" grid="1" gridSize="10" guides="1" tooltips="1" connect="1" arrows="1" fold="1" page="1" pageScale="1" pageWidth="850" pageHeight="1100" math="0" shadow="0">
      <root>
        <mxCell id="0" />
        <mxCell id="1" parent="0" />
        <mxCell id="p0TBZniZbPL4N-dRKp0C-9" value="CICD Account" style="points=[[0,0],[0.25,0],[0.5,0],[0.75,0],[1,0],[1,0.25],[1,0.5],[1,0.75],[1,1],[0.75,1],[0.5,1],[0.25,1],[0,1],[0,0.75],[0,0.5],[0,0.25]];outlineConnect=0;gradientColor=none;html=1;whiteSpace=wrap;fontSize=12;fontStyle=0;container=1;pointerEvents=0;collapsible=0;recursiveResize=0;shape=mxgraph.aws4.group;grIcon=mxgraph.aws4.group_aws_cloud_alt;strokeColor=#232F3E;fillColor=none;verticalAlign=top;align=left;spacingLeft=30;fontColor=#232F3E;dashed=0;" vertex="1" parent="1">
          <mxGeometry x="80" y="200" width="270" height="480" as="geometry" />
        </mxCell>
        <mxCell id="p0TBZniZbPL4N-dRKp0C-21" style="edgeStyle=orthogonalEdgeStyle;rounded=0;orthogonalLoop=1;jettySize=auto;html=1;" edge="1" parent="p0TBZniZbPL4N-dRKp0C-9" source="p0TBZniZbPL4N-dRKp0C-8" target="p0TBZniZbPL4N-dRKp0C-5">
          <mxGeometry relative="1" as="geometry" />
        </mxCell>
        <mxCell id="p0TBZniZbPL4N-dRKp0C-8" value="Source Bucket" style="sketch=0;points=[[0,0,0],[0.25,0,0],[0.5,0,0],[0.75,0,0],[1,0,0],[0,1,0],[0.25,1,0],[0.5,1,0],[0.75,1,0],[1,1,0],[0,0.25,0],[0,0.5,0],[0,0.75,0],[1,0.25,0],[1,0.5,0],[1,0.75,0]];outlineConnect=0;fontColor=#232F3E;fillColor=#7AA116;strokeColor=#ffffff;dashed=0;verticalLabelPosition=bottom;verticalAlign=top;align=center;html=1;fontSize=12;fontStyle=0;aspect=fixed;shape=mxgraph.aws4.resourceIcon;resIcon=mxgraph.aws4.s3;" vertex="1" parent="p0TBZniZbPL4N-dRKp0C-9">
          <mxGeometry x="100" y="50" width="78" height="78" as="geometry" />
        </mxCell>
        <mxCell id="p0TBZniZbPL4N-dRKp0C-22" style="edgeStyle=orthogonalEdgeStyle;rounded=0;orthogonalLoop=1;jettySize=auto;html=1;" edge="1" parent="p0TBZniZbPL4N-dRKp0C-9" source="p0TBZniZbPL4N-dRKp0C-5" target="p0TBZniZbPL4N-dRKp0C-6">
          <mxGeometry relative="1" as="geometry" />
        </mxCell>
        <mxCell id="p0TBZniZbPL4N-dRKp0C-5" value="CodePipeline" style="sketch=0;points=[[0,0,0],[0.25,0,0],[0.5,0,0],[0.75,0,0],[1,0,0],[0,1,0],[0.25,1,0],[0.5,1,0],[0.75,1,0],[1,1,0],[0,0.25,0],[0,0.5,0],[0,0.75,0],[1,0.25,0],[1,0.5,0],[1,0.75,0]];outlineConnect=0;fontColor=#232F3E;fillColor=#C925D1;strokeColor=#ffffff;dashed=0;verticalLabelPosition=bottom;verticalAlign=top;align=center;html=1;fontSize=12;fontStyle=0;aspect=fixed;shape=mxgraph.aws4.resourceIcon;resIcon=mxgraph.aws4.codepipeline;" vertex="1" parent="p0TBZniZbPL4N-dRKp0C-9">
          <mxGeometry x="100" y="200" width="78" height="78" as="geometry" />
        </mxCell>
        <mxCell id="p0TBZniZbPL4N-dRKp0C-6" value="Terraform State Bucket" style="sketch=0;points=[[0,0,0],[0.25,0,0],[0.5,0,0],[0.75,0,0],[1,0,0],[0,1,0],[0.25,1,0],[0.5,1,0],[0.75,1,0],[1,1,0],[0,0.25,0],[0,0.5,0],[0,0.75,0],[1,0.25,0],[1,0.5,0],[1,0.75,0]];outlineConnect=0;fontColor=#232F3E;fillColor=#7AA116;strokeColor=#ffffff;dashed=0;verticalLabelPosition=bottom;verticalAlign=top;align=center;html=1;fontSize=12;fontStyle=0;aspect=fixed;shape=mxgraph.aws4.resourceIcon;resIcon=mxgraph.aws4.s3;" vertex="1" parent="p0TBZniZbPL4N-dRKp0C-9">
          <mxGeometry x="100" y="350" width="78" height="78" as="geometry" />
        </mxCell>
        <mxCell id="p0TBZniZbPL4N-dRKp0C-13" value="Target Account" style="points=[[0,0],[0.25,0],[0.5,0],[0.75,0],[1,0],[1,0.25],[1,0.5],[1,0.75],[1,1],[0.75,1],[0.5,1],[0.25,1],[0,1],[0,0.75],[0,0.5],[0,0.25]];outlineConnect=0;gradientColor=none;html=1;whiteSpace=wrap;fontSize=12;fontStyle=0;container=1;pointerEvents=0;collapsible=0;recursiveResize=0;shape=mxgraph.aws4.group;grIcon=mxgraph.aws4.group_aws_cloud_alt;strokeColor=#232F3E;fillColor=none;verticalAlign=top;align=left;spacingLeft=30;fontColor=#232F3E;dashed=0;" vertex="1" parent="1">
          <mxGeometry x="510" y="200" width="270" height="480" as="geometry" />
        </mxCell>
        <mxCell id="p0TBZniZbPL4N-dRKp0C-17" value="Cross-account Role" style="sketch=0;outlineConnect=0;fontColor=#232F3E;gradientColor=none;fillColor=#DD344C;strokeColor=none;dashed=0;verticalLabelPosition=bottom;verticalAlign=top;align=center;html=1;fontSize=12;fontStyle=0;aspect=fixed;pointerEvents=1;shape=mxgraph.aws4.role;" vertex="1" parent="p0TBZniZbPL4N-dRKp0C-13">
          <mxGeometry x="80" y="60" width="78" height="44" as="geometry" />
        </mxCell>
        <mxCell id="p0TBZniZbPL4N-dRKp0C-19" value="" style="sketch=0;points=[[0,0,0],[0.25,0,0],[0.5,0,0],[0.75,0,0],[1,0,0],[0,1,0],[0.25,1,0],[0.5,1,0],[0.75,1,0],[1,1,0],[0,0.25,0],[0,0.5,0],[0,0.75,0],[1,0.25,0],[1,0.5,0],[1,0.75,0]];outlineConnect=0;fontColor=#232F3E;fillColor=#ED7100;strokeColor=#ffffff;dashed=0;verticalLabelPosition=bottom;verticalAlign=top;align=center;html=1;fontSize=12;fontStyle=0;aspect=fixed;shape=mxgraph.aws4.resourceIcon;resIcon=mxgraph.aws4.ec2;" vertex="1" parent="p0TBZniZbPL4N-dRKp0C-13">
          <mxGeometry x="50" y="341" width="78" height="78" as="geometry" />
        </mxCell>
        <mxCell id="p0TBZniZbPL4N-dRKp0C-20" value="" style="sketch=0;outlineConnect=0;fontColor=#232F3E;gradientColor=none;fillColor=#DD344C;strokeColor=none;dashed=0;verticalLabelPosition=bottom;verticalAlign=top;align=center;html=1;fontSize=12;fontStyle=0;aspect=fixed;pointerEvents=1;shape=mxgraph.aws4.role;" vertex="1" parent="p0TBZniZbPL4N-dRKp0C-13">
          <mxGeometry x="170" y="350" width="78" height="44" as="geometry" />
        </mxCell>
        <mxCell id="p0TBZniZbPL4N-dRKp0C-26" value="" style="edgeStyle=orthogonalEdgeStyle;html=1;endArrow=open;elbow=vertical;startArrow=none;endFill=0;strokeColor=#545B64;rounded=0;entryX=0.5;entryY=0;entryDx=0;entryDy=0;entryPerimeter=0;dashed=1;" edge="1" parent="p0TBZniZbPL4N-dRKp0C-13" target="p0TBZniZbPL4N-dRKp0C-19">
          <mxGeometry width="100" relative="1" as="geometry">
            <mxPoint x="89" y="260" as="sourcePoint" />
            <mxPoint x="89" y="270" as="targetPoint" />
          </mxGeometry>
        </mxCell>
        <mxCell id="p0TBZniZbPL4N-dRKp0C-23" style="edgeStyle=orthogonalEdgeStyle;rounded=0;orthogonalLoop=1;jettySize=auto;html=1;entryX=1;entryY=0.25;entryDx=0;entryDy=0;entryPerimeter=0;" edge="1" parent="1" source="p0TBZniZbPL4N-dRKp0C-17" target="p0TBZniZbPL4N-dRKp0C-5">
          <mxGeometry relative="1" as="geometry" />
        </mxCell>
        <mxCell id="p0TBZniZbPL4N-dRKp0C-24" style="edgeStyle=orthogonalEdgeStyle;rounded=0;orthogonalLoop=1;jettySize=auto;html=1;exitX=1;exitY=0.75;exitDx=0;exitDy=0;exitPerimeter=0;dashed=1;" edge="1" parent="1" source="p0TBZniZbPL4N-dRKp0C-5" target="p0TBZniZbPL4N-dRKp0C-20">
          <mxGeometry relative="1" as="geometry" />
        </mxCell>
        <mxCell id="p0TBZniZbPL4N-dRKp0C-28" value="&lt;b&gt;Terraform&lt;/b&gt;" style="edgeLabel;html=1;align=center;verticalAlign=middle;resizable=0;points=[];" vertex="1" connectable="0" parent="p0TBZniZbPL4N-dRKp0C-24">
          <mxGeometry x="0.1186" relative="1" as="geometry">
            <mxPoint x="-17" y="1" as="offset" />
          </mxGeometry>
        </mxCell>
      </root>
    </mxGraphModel>
  </diagram>
</mxfile>
